HIERARCHY
ROOT root
{
	OFFSET	0	13.1	24.9
	CHANNELS 6  Xposition Yposition Zposition Xrotation Yrotation Zrotation
	JOINT spine_1
	{
		OFFSET	0	9.99999	0
		CHANNELS 3  Xrotation Yrotation Zrotation
		JOINT spine_2
		{
			OFFSET	0	112	-10
			CHANNELS 3  Xrotation Yrotation Zrotation
			JOINT spine_3
			{
				OFFSET	0	206.5	19.3
				CHANNELS 3  Xrotation Yrotation Zrotation
				JOINT spine_4
				{
					OFFSET	0	110.4	14.6
					CHANNELS 3  Xrotation Yrotation Zrotation
					JOINT neck_1
					{
						OFFSET	0	71.8	-50.3
						CHANNELS 3  Xrotation Yrotation Zrotation
						JOINT neck_2
						{
							OFFSET	0	86.2	-25.8
							CHANNELS 3  Xrotation Yrotation Zrotation
							JOINT head_ee
							{
								OFFSET	0	179.8	-8.7
								CHANNELS 3  Xrotation Yrotation Zrotation
								End Site
								{
									OFFSET	1	0	0
								}
							}
						}
					}
					JOINT left_clavicle
					{
						OFFSET	-43.2	22.4	-70.8
						CHANNELS 3  Xrotation Yrotation Zrotation
						JOINT left_shoulder
						{
							OFFSET	-93.9	-5.79999	48.7
							CHANNELS 3  Xrotation Yrotation Zrotation
							JOINT left_elbow
							{
								OFFSET	-291.4	-30.8	15.2
								CHANNELS 3  Xrotation Yrotation Zrotation
								JOINT left_lowarm_twist
								{
									OFFSET	-110.7	-3.89999	13.6
									CHANNELS 3  Xrotation Yrotation Zrotation
									JOINT left_hand
									{
										OFFSET	-110.7	-3.89999	13.6
										CHANNELS 3  Xrotation Yrotation Zrotation
										JOINT left_ee
										{
											OFFSET	-80.8	-5.10001	12.1
											CHANNELS 3  Xrotation Yrotation Zrotation
											End Site
											{
												OFFSET	1	0	0
											}
										}
									}
								}
							}
						}
					}
					JOINT right_clavicle
					{
						OFFSET	43.2	22.4	-70.8
						CHANNELS 3  Xrotation Yrotation Zrotation
						JOINT right_shoulder
						{
							OFFSET	93.9	-5.79999	48.7
							CHANNELS 3  Xrotation Yrotation Zrotation
							JOINT right_elbow
							{
								OFFSET	291.4	-30.8	15.2
								CHANNELS 3  Xrotation Yrotation Zrotation
								JOINT right_lowarm_twist
								{
									OFFSET	110.7	-3.89999	13.6
									CHANNELS 3  Xrotation Yrotation Zrotation
									JOINT right_hand
									{
										OFFSET	110.7	-3.89999	13.6
										CHANNELS 3  Xrotation Yrotation Zrotation
										JOINT right_ee
										{
											OFFSET	80.8	-5.10001	12.1
											CHANNELS 3  Xrotation Yrotation Zrotation
											End Site
											{
												OFFSET	1	0	0
											}
										}
									}
								}
							}
						}
					}
				}
			}
		}
	}
	JOINT left_hip
	{
		OFFSET	-82.8	-127.5	0.300001
		CHANNELS 3  Xrotation Yrotation Zrotation
		JOINT left_knee
		{
			OFFSET	-28.2	-396.7	2.2
			CHANNELS 3  Xrotation Yrotation Zrotation
			JOINT left_ankle
			{
				OFFSET	-11.7	-411.3	35.4
				CHANNELS 3  Xrotation Yrotation Zrotation
				JOINT left_toes
				{
					OFFSET	0	-60	-88.6
					CHANNELS 3  Xrotation Yrotation Zrotation
					JOINT left_foot_ee
					{
						OFFSET	-22.5	-16.5	-42.2
						CHANNELS 3  Xrotation Yrotation Zrotation
						End Site
						{
							OFFSET	1	0	0
						}
					}
				}
			}
		}
	}
	JOINT right_hip
	{
		OFFSET	82.8	-127.5	0.300001
		CHANNELS 3  Xrotation Yrotation Zrotation
		JOINT right_knee
		{
			OFFSET	28.2	-396.7	2.2
			CHANNELS 3  Xrotation Yrotation Zrotation
			JOINT right_ankle
			{
				OFFSET	11.7	-411.3	35.4
				CHANNELS 3  Xrotation Yrotation Zrotation
				JOINT right_toes
				{
					OFFSET	0	-60	-88.6
					CHANNELS 3  Xrotation Yrotation Zrotation
					JOINT right_foot_ee
					{
						OFFSET	22.5	-16.5	-42.2
						CHANNELS 3  Xrotation Yrotation Zrotation
						End Site
						{
							OFFSET	1	0	0
						}
					}
				}
			}
		}
	}
}
MOTION
Frames: 16
Frame Time: 0.02
3574.42 741.953 -1474.73 -33.8504712648 83.2208692889 33.8254726154 2.63841 0.0616774 0.988516 2.63895 -0.00134625 0.990437 2.6388 -0.164709 0.976648 2.63747 -0.00840622 0.990402 -10.1957 16.963 -2.59265 -10.6195 33.7084 1.99846 -0.0 0.0 -0.0 1.92297 6.96547 4.27071 -19.7619 -26.2389 64.897 0.568232 -15.7213 0.0784515 -37.5609 -2.69557 3.88003 -0.906172 21.1987 3.17531 -0.0 0.0 -0.0 10.2476 19.5133 -19.9925 -19.6564 16.774 -64.2612 0.687043 18.7956 -0.113713 5.12698 -0.152218 0.636981 2.57358 0.898358 -17.1098 0.0 0.0 0.0 -0.224165 9.09697 2.54841 -8.15505 0.248877 1.22575 37.3719 21.1963 -4.80553 -36.5796 0.0 0.0 -0.0 0.0 -0.0 8.23355 -3.03386 0.504219 -4.17493 -0.149239 -0.623204 21.6546 27.1337 3.54002 -29.6755 0.0 0.0 0.0 0.0 0.0 
3570.69486435 744.019 -1475.91227087 -29.4035422547 82.1389161688 29.2381884154 2.57977 0.068545 0.967027 2.58029 0.00687463 0.969429 2.5803 -0.154111 0.957127 2.57902 -0.00102373 0.969453 -10.9211 16.6844 -2.17015 -11.4293 32.9608 2.56505 -0.0 0.0 -0.0 1.93979 6.99745 4.30332 -18.7306 -25.9118 64.4306 0.655862 -17.9988 0.103873 -37.9401 -2.7348 3.90882 -1.07399 21.1859 2.18462 -0.0 0.0 -0.0 9.58149 19.0694 -18.534 -19.8732 16.6784 -64.5351 0.656917 18.0259 -0.104199 5.10923 -0.151789 0.634755 2.55019 0.889799 -16.9492 0.0 0.0 0.0 -0.105689 9.21721 2.14653 -8.1024 0.247833 1.21774 37.5086 21.0046 -4.81446 -36.6335 0.0 0.0 -0.0 0.0 -0.0 8.11832 -3.48321 0.61861 -4.24772 -0.151437 -0.634158 22.1866 29.9022 3.74127 -29.785 0.0 0.0 0.0 0.0 0.0 
3564.53069553 743.154 -1478.77194965 -25.7652063793 80.2938756954 25.7770456473 2.53905 0.112399 0.950889 2.53955 0.0516668 0.956113 2.54032 -0.108387 0.951355 2.53906 0.0432146 0.956533 -10.2026 16.3519 -2.50391 -10.5912 32.4969 1.90447 -0.0 0.0 -0.0 1.86305 7.83493 4.23091 -18.7908 -25.3914 63.1052 0.724724 -19.7485 0.126151 -38.8497 -2.82967 3.97683 -1.35632 20.893 0.396946 -0.0 0.0 -0.0 9.28281 18.3631 -17.9173 -20.627 16.3565 -65.2017 0.61935 17.0565 -0.0928757 5.12243 -0.152108 0.636411 2.51987 0.860884 -16.7484 0.0 0.0 0.0 -0.0672826 8.58323 1.48753 -8.21489 0.250055 1.23486 37.3201 21.1522 -4.79937 -36.9035 0.0 0.0 -0.0 0.0 -0.0 8.40901 -3.5636 0.532867 -4.70891 -0.165037 -0.70363 21.5815 32.042 3.75997 -29.7858 0.0 0.0 0.0 0.0 0.0 
3565.82030755 743.051 -1481.32346569 -22.495156179 78.1499679795 22.0343757263 2.51915 0.168623 0.939132 2.51963 0.108524 0.947957 2.52135 -0.0512731 0.95277 2.5201 0.0998357 0.948911 -11.6463 16.1784 -1.98886 -12.2128 31.937 2.81263 -0.0 0.0 -0.0 1.83814 7.59388 4.16796 -18.125 -25.112 62.9691 0.793749 -21.4647 0.150447 -38.4518 -2.78804 3.94726 -1.35181 21.1355 0.532456 -0.0 0.0 -0.0 8.98362 17.8085 -17.2906 -20.9664 16.146 -65.4778 0.622605 17.1409 -0.0938328 5.15115 -0.1528 0.640015 2.48785 0.848564 -16.5293 0.0 0.0 0.0 0.0700329 9.27611 1.61356 -7.99354 0.245651 1.20118 36.823 20.8544 -4.74319 -36.9018 0.0 0.0 -0.0 0.0 -0.0 8.04232 -3.3044 0.9781 -4.48476 -0.158496 -0.669852 22.6507 33.0761 3.97829 -29.8404 0.0 0.0 0.0 0.0 0.0 
3565.93243929 743.051 -1481.46719624 -20.8617774867 77.254175663 20.3626925398 2.51915 0.168623 0.939132 2.51963 0.108524 0.947957 2.52135 -0.0512731 0.95277 2.5201 0.0998357 0.948911 -11.6463 16.1784 -1.98886 -12.2128 31.937 2.81263 -0.0 0.0 -0.0 1.83814 7.59388 4.16796 -18.125 -25.112 62.9691 0.793749 -21.4647 0.150447 -38.4518 -2.78804 3.94726 -1.35181 21.1355 0.532456 -0.0 0.0 -0.0 8.98362 17.8085 -17.2906 -20.9664 16.146 -65.4778 0.622605 17.1409 -0.0938328 5.15115 -0.1528 0.640015 2.48785 0.848564 -16.5293 0.0 0.0 0.0 0.0700329 9.27611 1.61356 -7.99354 0.245651 1.20118 36.823 20.8544 -4.74319 -36.9018 0.0 0.0 -0.0 0.0 -0.0 8.04232 -3.3044 0.9781 -4.48476 -0.158496 -0.669852 22.6507 33.0761 3.97829 -29.8404 0.0 0.0 0.0 0.0 0.0 
3566.07094278 743.051 -1481.63809261 -19.176288342 76.1612321668 18.6308915272 2.51915 0.168623 0.939132 2.51963 0.108524 0.947957 2.52135 -0.0512731 0.95277 2.5201 0.0998357 0.948911 -11.6463 16.1784 -1.98886 -12.2128 31.937 2.81263 -0.0 0.0 -0.0 1.83814 7.59388 4.16796 -18.125 -25.112 62.9691 0.793749 -21.4647 0.150447 -38.4518 -2.78804 3.94726 -1.35181 21.1355 0.532456 -0.0 0.0 -0.0 8.98362 17.8085 -17.2906 -20.9664 16.146 -65.4778 0.622605 17.1409 -0.0938328 5.15115 -0.1528 0.640015 2.48785 0.848564 -16.5293 0.0 0.0 0.0 0.0700329 9.27611 1.61356 -7.99354 0.245651 1.20118 36.823 20.8544 -4.74319 -36.9018 0.0 0.0 -0.0 0.0 -0.0 8.04232 -3.3044 0.9781 -4.48476 -0.158496 -0.669852 22.6507 33.0761 3.97829 -29.8404 0.0 0.0 0.0 0.0 0.0 
3566.2322978 743.051 -1481.82859371 -17.5635513919 74.9083487292 16.9654631195 2.51915 0.168623 0.939132 2.51963 0.108524 0.947957 2.52135 -0.0512731 0.95277 2.5201 0.0998357 0.948911 -11.6463 16.1784 -1.98886 -12.2128 31.937 2.81263 -0.0 0.0 -0.0 1.83814 7.59388 4.16796 -18.125 -25.112 62.9691 0.793749 -21.4647 0.150447 -38.4518 -2.78804 3.94726 -1.35181 21.1355 0.532456 -0.0 0.0 -0.0 8.98362 17.8085 -17.2906 -20.9664 16.146 -65.4778 0.622605 17.1409 -0.0938328 5.15115 -0.1528 0.640015 2.48785 0.848564 -16.5293 0.0 0.0 0.0 0.0700329 9.27611 1.61356 -7.99354 0.245651 1.20118 36.823 20.8544 -4.74319 -36.9018 0.0 0.0 -0.0 0.0 -0.0 8.04232 -3.3044 0.9781 -4.48476 -0.158496 -0.669852 22.6507 33.0761 3.97829 -29.8404 0.0 0.0 0.0 0.0 0.0 
3566.45054462 743.051 -1482.07277065 -15.8197728019 73.2494638447 15.1523269627 2.51915 0.168623 0.939132 2.51963 0.108524 0.947957 2.52135 -0.0512731 0.95277 2.5201 0.0998357 0.948911 -11.6463 16.1784 -1.98886 -12.2128 31.937 2.81263 -0.0 0.0 -0.0 1.83814 7.59388 4.16796 -18.125 -25.112 62.9691 0.793749 -21.4647 0.150447 -38.4518 -2.78804 3.94726 -1.35181 21.1355 0.532456 -0.0 0.0 -0.0 8.98362 17.8085 -17.2906 -20.9664 16.146 -65.4778 0.622605 17.1409 -0.0938328 5.15115 -0.1528 0.640015 2.48785 0.848564 -16.5293 0.0 0.0 0.0 0.0700329 9.27611 1.61356 -7.99354 0.245651 1.20118 36.823 20.8544 -4.74319 -36.9018 0.0 0.0 -0.0 0.0 -0.0 8.04232 -3.3044 0.9781 -4.48476 -0.158496 -0.669852 22.6507 33.0761 3.97829 -29.8404 0.0 0.0 0.0 0.0 0.0 
3566.72334648 743.051 -1482.35823863 -14.1348081917 71.2323015355 13.3833387062 2.51915 0.168623 0.939132 2.51963 0.108524 0.947957 2.52135 -0.0512731 0.95277 2.5201 0.0998357 0.948911 -11.6463 16.1784 -1.98886 -12.2128 31.937 2.81263 -0.0 0.0 -0.0 1.83814 7.59388 4.16796 -18.125 -25.112 62.9691 0.793749 -21.4647 0.150447 -38.4518 -2.78804 3.94726 -1.35181 21.1355 0.532456 -0.0 0.0 -0.0 8.98362 17.8085 -17.2906 -20.9664 16.146 -65.4778 0.622605 17.1409 -0.0938328 5.15115 -0.1528 0.640015 2.48785 0.848564 -16.5293 0.0 0.0 0.0 0.0700329 9.27611 1.61356 -7.99354 0.245651 1.20118 36.823 20.8544 -4.74319 -36.9018 0.0 0.0 -0.0 0.0 -0.0 8.04232 -3.3044 0.9781 -4.48476 -0.158496 -0.669852 22.6507 33.0761 3.97829 -29.8404 0.0 0.0 0.0 0.0 0.0 
3567.12454215 743.051 -1482.74278945 -12.3074490905 68.3711419119 11.4368687384 2.51915 0.168623 0.939132 2.51963 0.108524 0.947957 2.52135 -0.0512731 0.95277 2.5201 0.0998357 0.948911 -11.6463 16.1784 -1.98886 -12.2128 31.937 2.81263 -0.0 0.0 -0.0 1.83814 7.59388 4.16796 -18.125 -25.112 62.9691 0.793749 -21.4647 0.150447 -38.4518 -2.78804 3.94726 -1.35181 21.1355 0.532456 -0.0 0.0 -0.0 8.98362 17.8085 -17.2906 -20.9664 16.146 -65.4778 0.622605 17.1409 -0.0938328 5.15115 -0.1528 0.640015 2.48785 0.848564 -16.5293 0.0 0.0 0.0 0.0700329 9.27611 1.61356 -7.99354 0.245651 1.20118 36.823 20.8544 -4.74319 -36.9018 0.0 0.0 -0.0 0.0 -0.0 8.04232 -3.3044 0.9781 -4.48476 -0.158496 -0.669852 22.6507 33.0761 3.97829 -29.8404 0.0 0.0 0.0 0.0 0.0 
3567.73537184 743.051 -1483.25902377 -10.4091456648 64.2238040749 9.36507520732 2.51915 0.168623 0.939132 2.51963 0.108524 0.947957 2.52135 -0.0512731 0.95277 2.5201 0.0998357 0.948911 -11.6463 16.1784 -1.98886 -12.2128 31.937 2.81263 -0.0 0.0 -0.0 1.83814 7.59388 4.16796 -18.125 -25.112 62.9691 0.793749 -21.4647 0.150447 -38.4518 -2.78804 3.94726 -1.35181 21.1355 0.532456 -0.0 0.0 -0.0 8.98362 17.8085 -17.2906 -20.9664 16.146 -65.4778 0.622605 17.1409 -0.0938328 5.15115 -0.1528 0.640015 2.48785 0.848564 -16.5293 0.0 0.0 0.0 0.0700329 9.27611 1.61356 -7.99354 0.245651 1.20118 36.823 20.8544 -4.74319 -36.9018 0.0 0.0 -0.0 0.0 -0.0 8.04232 -3.3044 0.9781 -4.48476 -0.158496 -0.669852 22.6507 33.0761 3.97829 -29.8404 0.0 0.0 0.0 0.0 0.0 
3568.36656496 743.051 -1483.71801559 -9.08389519263 60.1557512412 7.86772924963 2.51915 0.168623 0.939132 2.51963 0.108524 0.947957 2.52135 -0.0512731 0.95277 2.5201 0.0998357 0.948911 -11.6463 16.1784 -1.98886 -12.2128 31.937 2.81263 -0.0 0.0 -0.0 1.83814 7.59388 4.16796 -18.125 -25.112 62.9691 0.793749 -21.4647 0.150447 -38.4518 -2.78804 3.94726 -1.35181 21.1355 0.532456 -0.0 0.0 -0.0 8.98362 17.8085 -17.2906 -20.9664 16.146 -65.4778 0.622605 17.1409 -0.0938328 5.15115 -0.1528 0.640015 2.48785 0.848564 -16.5293 0.0 0.0 0.0 0.0700329 9.27611 1.61356 -7.99354 0.245651 1.20118 36.823 20.8544 -4.74319 -36.9018 0.0 0.0 -0.0 0.0 -0.0 8.04232 -3.3044 0.9781 -4.48476 -0.158496 -0.669852 22.6507 33.0761 3.97829 -29.8404 0.0 0.0 0.0 0.0 0.0 
3515.00781748 709.31 -1543.95213496 1.71392526961 62.4723501079 -5.24013919247 1.43145 0.892847 2.23656 1.43392 0.748758 2.28881 1.46459 0.312515 2.38775 1.45729 0.685594 2.3085 -11.3118 13.65 -3.13947 -11.6696 27.8684 0.808166 -0.0 0.0 -0.0 0.516627 10.8787 2.16668 -17.595 -18.9682 59.5562 1.87732 -42.9175 0.737991 -40.1365 -2.9657 4.07045 -3.54882 8.63025 -19.7385 -0.0 0.0 -0.0 12.7369 22.386 -25.4423 -18.416 16.7528 -66.2385 0.145119 4.11188 -0.00520948 3.42919 -0.108137 0.424593 1.63122 -13.9536 -16.1438 0.0 0.0 0.0 5.6866 9.20431 0.0768351 -40.2192 -0.480769 6.02893 31.6087 18.7261 -4.15976 -25.7522 0.0 0.0 -0.0 0.0 -0.0 -0.0777901 -0.439823 2.70206 -16.0969 -0.321694 -2.44118 35.7827 24.5139 5.15936 -24.3867 0.0 0.0 0.0 0.0 0.0 
3498.95297726 703.888 -1544.49934125 3.48288874243 66.865706773 -8.07288954127 0.841945 0.836092 2.53968 0.845282 0.672846 2.5877 0.877147 0.155185 2.66918 0.867666 0.57464 2.61125 -9.83214 13.6859 -2.46841 -10.0533 27.4217 1.07312 -0.0 0.0 -0.0 -0.640168 13.9066 0.595941 -19.4006 -20.4441 60.4385 1.8109 -41.8902 0.693196 -40.2789 -2.98087 4.08062 -3.25731 5.68819 -19.3361 -0.0 0.0 -0.0 13.6247 25.1429 -27.2273 -16.6187 16.6948 -65.944 0.193833 5.48483 -0.00928473 3.52663 -0.110838 0.436746 1.49202 -15.6244 -15.7996 0.0 0.0 0.0 8.10659 9.8154 -0.598194 -45.8924 -0.883534 6.80263 31.9369 15.5069 -4.1491 -24.5933 0.0 0.0 -0.0 0.0 -0.0 -0.965981 3.86283 3.18293 -18.3928 -0.311303 -2.79327 39.1644 18.484 5.21559 -23.3724 0.0 0.0 0.0 0.0 0.0 
3467.01300602 706.807 -1530.91257776 4.08369874577 74.177064046 -10.4642013903 1.14305 0.89333 2.85265 1.14729 0.710077 2.90365 1.18468 0.146156 2.98557 1.17278 0.615634 2.92512 -9.12097 15.9513 0.188995 -9.34733 29.8318 4.07162 -0.0 0.0 -0.0 -2.19221 18.6295 -1.12558 -23.9792 -18.1677 64.0336 1.68364 -39.8256 0.609932 -39.3434 -2.88161 4.01311 -2.7048 3.42608 -16.6777 -0.0 0.0 -0.0 14.5332 25.9953 -29.2573 -10.573 18.449 -65.2452 0.511732 14.2249 -0.0638528 3.12641 -0.0996152 0.386855 1.45756 -11.8734 -14.2873 0.0 0.0 0.0 15.3798 13.1399 -3.53417 -53.5551 -1.54568 7.77827 22.6815 13.026 -3.07513 -21.3493 0.0 0.0 -0.0 0.0 -0.0 -7.63535 1.89616 5.78177 -6.17524 -0.204551 -0.925187 37.868 20.0892 5.15998 -14.5512 0.0 0.0 0.0 0.0 0.0 
3468.78419097 706.807 -1534.17594395 3.68720400094 72.4259235384 -10.050298805 1.14305 0.89333 2.85265 1.14729 0.710077 2.90365 1.18468 0.146156 2.98557 1.17278 0.615634 2.92512 -9.12097 15.9513 0.188995 -9.34733 29.8318 4.07162 -0.0 0.0 -0.0 -2.19221 18.6295 -1.12558 -23.9792 -18.1677 64.0336 1.68364 -39.8256 0.609932 -39.3434 -2.88161 4.01311 -2.7048 3.42608 -16.6777 -0.0 0.0 -0.0 14.5332 25.9953 -29.2573 -10.573 18.449 -65.2452 0.511732 14.2249 -0.0638528 3.12641 -0.0996152 0.386855 1.45756 -11.8734 -14.2873 0.0 0.0 0.0 15.3798 13.1399 -3.53417 -53.5551 -1.54568 7.77827 22.6815 13.026 -3.07513 -21.3493 0.0 0.0 -0.0 0.0 -0.0 -7.63535 1.89616 5.78177 -6.17524 -0.204551 -0.925187 37.868 20.0892 5.15998 -14.5512 0.0 0.0 0.0 0.0 0.0 
